<svg xmlns="http://www.w3.org/2000/svg" xmlns:xlink="http://www.w3.org/1999/xlink" width="100%" height="100%" viewBox="0 0 1380 820" preserveAspectRatio="xMinYMin meet" ><rect id="svgEditorBackground" x="0" y="0" width="1380" height="820" style="fill: none; stroke: none;"/><rect x="479.2466585662" y="228.1652490887" style="fill:white;stroke:black;stroke-width:1px" id="e4_rectangle" width="556.9623329283" height="320.8262454435"/><path d="M479.247,391.567h551.981" style="fill:none;stroke:black;stroke-width:1px" id="e6_pathH"/><path d="M753.244,548.991v-316.841" style="fill:none;stroke:black;stroke-width:1px" id="e10_pathV"/><path d="M4.466777,2.939314l-3.7,-3.7c-.6,-.6,-1.9,.6,-1.3,1.3l2.5,2.5l-2.5,2.5c-.6,.6,.6,1.9,1.3,1.3l3.7,-3.7Z" style="fill:black;stroke:black;vector-effect:non-scaling-stroke;stroke-width:1px" id="e13_shape" transform="matrix(2.01352 0 0 2.01352 1025.21 385.396)"/><path d="M-92.147161,-68.370974l-3.7,-3.7c-.6,-.6,-1.9,.6,-1.3,1.3l2.5,2.5l-2.5,2.5c-.6,.6,.6,1.9,1.3,1.3l3.7,-3.7Z" style="fill:black;stroke:black;vector-effect:non-scaling-stroke;stroke-width:1px" id="e14_shape" transform="matrix(0 -2.01352 2.01352 0 890.632 43.804)"/><text style="fill:black;font-family:Arial;font-size:20px" x="744.548" y="243.138" id="e14_texte" transform="matrix(0.60917 0 0 0.60917 290.087 100.302)">y</text><text style="fill:black;font-family:Arial;font-size:20px" x="768.202" y="245.672" id="e15_texte" transform="matrix(0.60917 0 0 0.60917 290.087 100.302)">20</text><text style="fill:black;font-family:Arial;font-size:20px" x="1184.7" y="505.877" id="e16_texte" transform="matrix(0.60917 0 0 0.60917 290.087 100.302)">20</text><text style="fill:black;font-family:Arial;font-size:20px" x="1189.77" y="464.481" id="e17_texte" transform="matrix(0.60917 0 0 0.60917 290.087 100.302)">x</text><text style="fill:black;font-family:Arial;font-size:20px" x="321.291" y="469.55" id="e18_texte" transform="matrix(0.60917 0 0 0.60917 290.087 100.302)">-20</text><text style="fill:black;font-family:Arial;font-size:20px" x="764.823" y="728.066" id="e19_texte" transform="matrix(0.60917 0 0 0.60917 290.087 100.302)">-20</text><path d="M824.255616,386.68464v10.807" style="fill:none;stroke:black;stroke-width:1px" id="e18_pathV"/><path d="M782.569738,386.68464v10.807" style="fill:none;stroke:black;stroke-width:1px" id="e19_pathV"/><path d="M766.615884,387.713921v10.807" style="fill:none;stroke:black;stroke-width:1px" id="e20_pathV"/><path d="M796.979672,387.19928v10.807" style="fill:none;stroke:black;stroke-width:1px" id="e21_pathV"/><path d="M810.360324,387.713921v10.807" style="fill:none;stroke:black;stroke-width:1px" id="e22_pathV"/><path d="M749.898,316.601h7.205" style="fill:none;stroke:black;stroke-width:1px" id="e23_pathH"/><path d="M750.15532,354.684394h7.205" style="fill:none;stroke:black;stroke-width:1px" id="e24_pathH"/><path d="M749.898,369.094327h7.205" style="fill:none;stroke:black;stroke-width:1px" id="e25_pathH"/><path d="M749.898,361.63204h7.205" style="fill:none;stroke:black;stroke-width:1px" id="e26_pathH"/><path d="M750.41264,377.071254h7.205" style="fill:none;stroke:black;stroke-width:1px" id="e27_pathH"/><path d="M750.15532,385.048182h7.205" style="fill:none;stroke:black;stroke-width:1px" id="e28_pathH"/><line id="e25_line" x1="753.2428883845723" y1="391.22339579140726" x2="782.0627544305739" y2="368.32189509413803" style="stroke:deeppink;fill:none;stroke-width:1px"/><line id="e26_line" x1="753.2428883845723" y1="391.22339579140726" x2="822.722" y2="331.523" style="stroke:darkkhaki;fill:none;stroke-width:1px"/><path d="M894.094,387.378v9.006" style="fill:none;stroke:black;stroke-width:1px" id="e28_pathV"/><path d="M749.995,273.9h7.462" style="fill:none;stroke:black;stroke-width:1px" id="e30_pathH"/><line id="e31_line" x1="752.8250480271776" y1="391.23811529444606" x2="892.550" y2="269.7829655291533" style="stroke:mediumturquoise;fill:none;stroke-width:1px"/><text style="fill:deeppink;font-family:Arial;font-size:20px" x="787.211" y="439.559" id="e20_texte" transform="matrix(0.60917 0 0 0.60917 290.087 100.302)">u</text><text style="fill:darkkhaki;font-family:Arial;font-size:20px" x="871.271" y="421.395" id="e21_texte" transform="matrix(0.60917 0 0 0.60917 290.087 100.302)">2u</text><text style="fill:mediumturquoise;font-family:Arial;font-size:20px" x="961.667" y="279.887" id="e22_texte" transform="matrix(0.60917 0 0 0.60917 290.087 100.302)">5u</text><path d="M612.933,385.994v11.322" style="fill:none;stroke:black;stroke-width:1px" id="e34_pathV"/><path d="M756.003,471.939h-7.205" style="fill:none;stroke:black;stroke-width:1px" id="e36_pathH"/><line id="e41_line" x1="753.239" y1="391.395" x2="583.403" y2="548.365" style="stroke:chocolate;fill:none;stroke-width:1px"/><text style="fill:chocolate;font-family:Arial;font-size:20px" x="505.463" y="730.177" id="e23_texte" transform="matrix(0.60917 0 0 0.60917 290.087 100.302)">-10u</text><line id="e42_line" x1="752.4009566648907" y1="390.6254469175095" x2="679.3220106196721" y2="459.0726287767635" style="stroke:lawngreen;fill:none;stroke-width:1px"/><text style="fill:lawngreen;font-family:Arial;font-size:20px" x="619.513" y="578.109" id="e24_texte" transform="matrix(0.60917 0 0 0.60917 290.087 100.302)">-3u</text></svg>